<svg width="54" height="54" viewBox="0 0 54 54" fill="none" xmlns="http://www.w3.org/2000/svg">
<path fill-rule="evenodd" clip-rule="evenodd" d="M20.1894 3.3163H23.9556V0.885372C23.9556 0.396585 24.3502 0 24.8367 0C25.3231 0 25.7178 0.396585 25.7178 0.885372V3.3163H29.4839V5.87963H20.1894V3.3163ZM44.8667 35.6448C49.9109 35.6448 54 39.7537 54 44.8224C54 49.8911 49.9109 54 44.8667 54C39.8224 54 35.7334 49.8911 35.7334 44.8224C35.7328 39.7537 39.8224 35.6448 44.8667 35.6448ZM43.6668 45.6321L41.6258 43.5812C41.097 43.0499 40.2388 43.0499 39.7101 43.5812C39.1813 44.1126 39.1813 44.9749 39.7101 45.5062L42.7116 48.5223C43.2403 49.0536 44.0985 49.0536 44.6273 48.5223C46.4365 46.7043 48.2252 44.8655 50.0262 43.0392C50.5515 42.5067 50.5497 41.6474 50.0203 41.1184C49.491 40.5894 48.6334 40.5906 48.1076 41.1243L43.6668 45.6321ZM3.04444 17.3729H12.3389V19.1815H3.04444V17.3729ZM15.3828 45.6676C7.06527 45.6735 2.12099 45.6741 0.549364 45.6711C0.246449 45.6705 0 45.4223 0 45.1179V21.5054C0 21.2005 0.247037 20.9522 0.55054 20.9522H14.8322C15.1357 20.9522 15.3828 21.2005 15.3828 21.5054V45.6676ZM6.48002 36.8251H3.37441C3.19266 36.8251 3.04385 36.974 3.04385 37.1572V39.983C3.04385 40.1656 3.19208 40.3152 3.37441 40.3152H6.48002C6.66177 40.3152 6.81058 40.1662 6.81058 39.983V37.1572C6.81058 36.974 6.66177 36.8251 6.48002 36.8251ZM3.37441 29.7947H6.48002C6.66177 29.7947 6.81058 29.6458 6.81058 29.4626V26.6374C6.81058 26.4548 6.66236 26.3052 6.48002 26.3052H3.37441C3.19266 26.3052 3.04385 26.4542 3.04385 26.6374V29.4626C3.04444 29.6458 3.19266 29.7947 3.37441 29.7947ZM8.90275 29.7947H12.0084C12.1901 29.7947 12.3389 29.6458 12.3389 29.4626V26.6374C12.3389 26.4548 12.1907 26.3052 12.0084 26.3052H8.90275C8.72101 26.3052 8.5722 26.4542 8.5722 26.6374V29.4626C8.5722 29.6458 8.72101 29.7947 8.90275 29.7947ZM12.0084 31.5655H8.90275C8.72101 31.5655 8.5722 31.7144 8.5722 31.8976V34.7228C8.5722 34.9054 8.72042 35.0549 8.90275 35.0549H12.0084C12.1901 35.0549 12.3389 34.906 12.3389 34.7228V31.8976C12.3383 31.7144 12.1901 31.5655 12.0084 31.5655ZM6.48002 31.5655H3.37441C3.19266 31.5655 3.04385 31.7144 3.04385 31.8976V34.7228C3.04385 34.9054 3.19208 35.0549 3.37441 35.0549H6.48002C6.66177 35.0549 6.81058 34.906 6.81058 34.7228V31.8976C6.81058 31.7144 6.66177 31.5655 6.48002 31.5655ZM12.0084 36.8251H8.90275C8.72101 36.8251 8.5722 36.974 8.5722 37.1572V39.983C8.5722 40.1656 8.72042 40.3152 8.90275 40.3152H12.0084C12.1901 40.3152 12.3389 40.1662 12.3389 39.983V37.1572C12.3383 36.974 12.1901 36.8251 12.0084 36.8251ZM23.625 26.6593H20.5194C20.3376 26.6593 20.1888 26.5103 20.1888 26.3271V23.5014C20.1888 23.3187 20.3371 23.1692 20.5194 23.1692H23.625C23.8067 23.1692 23.9556 23.3181 23.9556 23.5014V26.3271C23.9556 26.5097 23.8067 26.6593 23.625 26.6593ZM23.625 21.399H20.5194C20.3376 21.399 20.1888 21.2501 20.1888 21.0669V18.2417C20.1888 18.0591 20.3371 17.9096 20.5194 17.9096H23.625C23.8067 17.9096 23.9556 18.0585 23.9556 18.2417V21.0669C23.9556 21.2501 23.8067 21.399 23.625 21.399ZM23.625 16.1394H20.5194C20.3376 16.1394 20.1888 15.9905 20.1888 15.8073V12.9821C20.1888 12.7995 20.3371 12.6499 20.5194 12.6499H23.625C23.8067 12.6499 23.9556 12.7989 23.9556 12.9821V15.8073C23.9556 15.9899 23.8067 16.1394 23.625 16.1394ZM25.7172 21.0669V18.2417C25.7172 18.0591 25.8654 17.9096 26.0477 17.9096H29.1533C29.3351 17.9096 29.4839 18.0585 29.4839 18.2417V21.0669C29.4839 21.2495 29.3357 21.399 29.1533 21.399H26.0477C25.866 21.399 25.7172 21.2501 25.7172 21.0669ZM29.1533 16.1394H26.0477C25.866 16.1394 25.7172 15.9905 25.7172 15.8073V12.9821C25.7172 12.7995 25.8654 12.6499 26.0477 12.6499H29.1533C29.3351 12.6499 29.4839 12.7989 29.4839 12.9821V15.8073C29.4833 15.9899 29.3351 16.1394 29.1533 16.1394ZM25.7172 26.3271V23.5014C25.7172 23.3187 25.8654 23.1692 26.0477 23.1692H29.1533C29.3351 23.1692 29.4839 23.3181 29.4839 23.5014V26.3271C29.4839 26.5097 29.3357 26.6593 29.1533 26.6593H26.0477C25.866 26.6593 25.7172 26.5097 25.7172 26.3271ZM17.145 45.6676H20.887V35.0195C20.887 34.0313 21.7769 33.2257 22.8674 33.2257H26.8047C27.8958 33.2257 28.7851 34.0318 28.7851 35.0195V45.6676H32.5272V8.20358C32.5272 7.89861 32.2801 7.65037 31.9766 7.65037H17.6949C17.3914 7.65037 17.1444 7.89861 17.1444 8.20358L17.145 45.6676ZM37.3344 17.3729H46.6289V19.1815H37.3344V17.3729ZM34.29 42.1864C35.0787 38.98 37.0874 36.5101 39.9418 35.0543H37.665C37.4832 35.0543 37.3344 34.9054 37.3344 34.7222V31.897C37.3344 31.7144 37.4826 31.5649 37.665 31.5649H40.7706C40.9523 31.5649 41.1011 31.7138 41.1011 31.897V34.5461C41.6675 34.3362 42.2569 34.1731 42.8633 34.0596V31.897C42.8633 31.7144 43.0115 31.5649 43.1939 31.5649H46.2995C46.4812 31.5649 46.6301 31.7138 46.6301 31.897V34.0177C47.7058 34.1938 48.7287 34.5277 49.6745 34.9952V21.5054C49.6745 21.2005 49.4275 20.9522 49.124 20.9522H34.8405C34.537 20.9522 34.29 21.2005 34.29 21.5054V42.1864ZM37.6644 29.7947C37.4826 29.7947 37.3338 29.6458 37.3338 29.4626V26.6374C37.3338 26.4548 37.482 26.3052 37.6644 26.3052H40.77C40.9517 26.3052 41.1005 26.4542 41.1005 26.6374V29.4626C41.1005 29.6452 40.9523 29.7947 40.77 29.7947H37.6644ZM43.1927 29.7947C43.011 29.7947 42.8621 29.6458 42.8621 29.4626V26.6374C42.8621 26.4548 43.0104 26.3052 43.1927 26.3052H46.2983C46.4801 26.3052 46.6289 26.4542 46.6289 26.6374V29.4626C46.6289 29.6452 46.4807 29.7947 46.2983 29.7947H43.1927Z" fill="#777E90"/>
</svg>
