<svg width="54" height="54" viewBox="0 0 54 54" fill="none" xmlns="http://www.w3.org/2000/svg">
<path fill-rule="evenodd" clip-rule="evenodd" d="M16.7351 4.28544C14.0387 7.03591 12.5313 10.7506 12.5425 14.6181C12.5536 18.4855 14.0822 22.1914 16.7945 24.9261C19.5067 27.6607 23.1821 29.202 27.0177 29.2131C30.8533 29.2242 34.5374 27.7042 37.2652 24.9853C39.9873 22.2402 41.5165 18.5172 41.5165 14.6354C41.5165 10.7535 39.9873 7.03054 37.2652 4.28544C34.5422 1.54143 30.8499 0 27.0002 0C23.1504 0 19.4581 1.54143 16.7351 4.28544ZM34.0321 10.2323C34.326 10.5286 34.5088 10.9184 34.5496 11.3355C34.5903 11.7525 34.4865 12.1709 34.2556 12.5193C34.0248 12.8678 33.6812 13.1247 33.2836 13.2464C32.8859 13.3682 32.4587 13.3471 32.0747 13.1869C31.6907 13.0266 31.3737 12.7371 31.1776 12.3676C30.9816 11.9981 30.9186 11.5715 30.9995 11.1605C31.0804 10.7495 31.3001 10.3795 31.6213 10.1134C31.9424 9.84744 32.345 9.70191 32.7606 9.70165C32.9966 9.70143 33.2302 9.74819 33.4482 9.83924C33.6662 9.9303 33.8642 10.0639 34.0309 10.2323H34.0321ZM32.7606 8.33489C33.49 8.33471 34.1969 8.58956 34.7609 9.05601C35.3248 9.52246 35.7109 10.1716 35.8533 10.893C35.9958 11.6143 35.8857 12.363 35.542 13.0117C35.1983 13.6604 34.6421 14.1688 33.9682 14.4504C33.2944 14.7319 32.5446 14.7692 31.8466 14.5558C31.1485 14.3423 30.5455 13.8915 30.1402 13.28C29.7349 12.6685 29.5524 11.9343 29.6239 11.2023C29.6953 10.4704 30.0163 9.7861 30.532 9.26603C30.8243 8.97043 31.1717 8.736 31.5542 8.5762C31.9366 8.41641 32.3466 8.3344 32.7606 8.33489ZM22.5088 10.2323C22.8027 10.5286 22.9856 10.9186 23.0263 11.3358C23.067 11.7529 22.963 12.1714 22.732 12.5198C22.501 12.8683 22.1572 13.1252 21.7594 13.2467C21.3616 13.3683 20.9343 13.347 20.5503 13.1864C20.1663 13.0259 19.8494 12.736 19.6536 12.3663C19.4578 11.9965 19.3953 11.5698 19.4766 11.1587C19.5579 10.7477 19.7781 10.3778 20.0996 10.1121C20.4211 9.8464 20.824 9.70135 21.2397 9.70165C21.4757 9.70133 21.7094 9.74805 21.9274 9.83911C22.1454 9.93017 22.3434 10.0638 22.51 10.2323H22.5088ZM21.2397 8.33489C21.969 8.33477 22.6757 8.58961 23.2395 9.05599C23.8033 9.52237 24.1892 10.1714 24.3316 10.8926C24.474 11.6137 24.364 12.3624 24.0203 13.0109C23.6766 13.6594 23.1206 14.1677 22.4469 14.4492C21.7732 14.7307 21.0235 14.7679 20.3256 14.5546C19.6278 14.3412 19.0248 13.8905 18.6196 13.2792C18.2144 12.6678 18.0319 11.9337 18.1033 11.202C18.1747 10.4702 18.4955 9.78603 19.0111 9.26603C19.3034 8.97038 19.6507 8.73591 20.0332 8.57611C20.4157 8.41631 20.8257 8.33433 21.2397 8.33489ZM29.5035 50.6772V51.612C29.5058 52.2446 29.756 52.8507 30.1997 53.2981C30.6434 53.7455 31.2445 53.9978 31.8719 54H44.4801C45.1077 53.9979 45.709 53.7457 46.1528 53.2983C46.5966 52.8509 46.8469 52.2447 46.8491 51.612V50.6772C46.8469 50.0444 46.5966 49.4381 46.1528 48.9906C45.709 48.5431 45.1077 48.2908 44.4801 48.2885H31.8719C31.2444 48.2909 30.6433 48.5434 30.1996 48.9908C29.756 49.4383 29.5058 50.0445 29.5035 50.6772ZM46.2017 33.7201C46.4771 33.4357 46.7579 33.1677 47.0561 32.8833C47.4378 32.5203 47.8452 32.13 48.1992 31.764C50.0624 29.8394 51.6285 27.5113 49.2931 25.214C48.7839 24.6712 48.1201 24.3014 47.3933 24.1558L46.1561 12.5574C46.1519 12.5126 46.1483 12.4703 46.1458 12.4297C46.1118 11.7845 46.3162 11.1494 46.7195 10.6473C46.91 10.4038 47.1463 10.2005 47.4149 10.0491C47.6834 9.89778 47.9789 9.80128 48.2844 9.76518C48.324 9.76094 48.3624 9.75792 48.3978 9.7555C49.0621 9.71202 49.7181 9.92315 50.2346 10.3466C50.761 10.7889 51.1107 11.4086 51.2186 12.0909L53.9423 28.0485C54.5507 31.6115 50.222 36.6938 46.9979 40.4734C46.1963 41.4142 45.46 42.2782 44.8887 43.0145C44.1717 43.9348 44.2485 45.4903 44.3091 46.7215L44.3187 46.9248H32.1636C31.4527 43.7081 31.4801 41.0334 32.2458 38.9009C32.6554 37.7946 33.2859 36.7849 34.0983 35.9343C34.9108 35.0837 35.8877 34.4104 36.9687 33.956C38.5427 33.2167 40.089 31.4694 41.6413 29.7208C42.2107 29.0777 42.7814 28.4339 43.3652 27.8301C45.1444 25.9914 46.8725 24.7445 48.3456 26.1965C49.8385 27.6649 48.624 29.3741 47.2253 30.819C46.8323 31.2255 46.4669 31.574 46.1249 31.9007C45.7828 32.2275 45.4648 32.5306 45.2248 32.7756C45.1633 32.8403 45.115 32.9165 45.0827 33C45.0505 33.0835 45.0348 33.1726 45.0367 33.2622C45.0385 33.3518 45.0579 33.4401 45.0936 33.5221C45.1293 33.6042 45.1807 33.6783 45.2449 33.7403C45.309 33.8023 45.3846 33.851 45.4674 33.8836C45.5502 33.9161 45.6386 33.9319 45.7274 33.93C45.8163 33.9281 45.9039 33.9086 45.9852 33.8726C46.0666 33.8366 46.1402 33.7847 46.2017 33.7201ZM24.4968 51.612V50.6772C24.4945 50.0445 24.2443 49.4383 23.8007 48.9908C23.357 48.5434 22.7559 48.2909 22.1284 48.2885H9.52018C8.89257 48.2908 8.2913 48.5431 7.8475 48.9906C7.40371 49.4381 7.15341 50.0444 7.1512 50.6772V51.612C7.15341 52.2447 7.40373 52.8509 7.84754 53.2983C8.29135 53.7457 8.89262 53.9979 9.52018 54H22.1284C22.7558 53.9978 23.3569 53.7455 23.8006 53.2981C24.2443 52.8507 24.4945 52.2446 24.4968 51.612ZM8.77072 32.7702C8.53371 32.5282 8.21388 32.2202 7.87065 31.8953C7.52743 31.5704 7.1632 31.2201 6.77017 30.8141C5.37146 29.3687 4.15696 27.6595 5.64988 26.1911C7.12479 24.739 8.85293 25.9866 10.6303 27.8247C11.2147 28.4297 11.7848 29.0722 12.3542 29.7154C13.9053 31.4657 15.4528 33.213 17.0268 33.9506C18.1078 34.4049 19.0848 35.0783 19.8972 35.9289C20.7096 36.7794 21.3401 37.7892 21.7497 38.8955C22.513 41.03 22.5404 43.7046 21.8319 46.9194H9.6798L9.6894 46.7161C9.7494 45.4848 9.82681 43.9293 9.10975 43.0091C8.53851 42.2758 7.80225 41.4118 7.00059 40.4679C3.77833 36.6938 -0.552206 31.6115 0.058042 28.0485L2.78346 12.0879C2.89145 11.4056 3.24107 10.7859 3.76753 10.3436C4.28399 9.92013 4.94002 9.709 5.60428 9.75247C5.63968 9.75247 5.67808 9.75792 5.71768 9.76215C6.02323 9.79825 6.31872 9.89475 6.58725 10.0461C6.85578 10.1975 7.09207 10.4007 7.28261 10.6443C7.68598 11.1466 7.89037 11.7819 7.85625 12.4273C7.85625 12.4672 7.85085 12.5096 7.84605 12.5544L6.60695 24.1558C5.88093 24.3028 5.21815 24.6737 4.71021 25.217C2.37482 27.5161 3.94095 29.8424 5.80409 31.767C6.15812 32.13 6.56555 32.5221 6.94418 32.8863C7.2442 33.1707 7.52323 33.4387 7.79865 33.7231C7.92357 33.8527 8.09443 33.9269 8.27364 33.9294C8.45284 33.932 8.62572 33.8627 8.75422 33.7367C8.88273 33.6107 8.95635 33.4385 8.95888 33.2578C8.96141 33.0771 8.89265 32.9028 8.76772 32.7732L8.77072 32.7702ZM19.7708 21.9244C19.7077 21.8609 19.6577 21.7854 19.6236 21.7024C19.5895 21.6193 19.5719 21.5303 19.5719 21.4404C19.5719 21.3505 19.5895 21.2615 19.6236 21.1785C19.6577 21.0954 19.7077 21.0199 19.7708 20.9564C19.8338 20.8928 19.9087 20.8424 19.991 20.808C20.0734 20.7736 20.1617 20.7559 20.2508 20.7559C20.34 20.7559 20.4283 20.7736 20.5106 20.808C20.593 20.8424 20.6678 20.8928 20.7309 20.9564C21.5542 21.7869 22.5317 22.4458 23.6076 22.8953C24.6835 23.3448 25.8367 23.5762 27.0014 23.5762C28.166 23.5762 29.3192 23.3448 30.3951 22.8953C31.471 22.4458 32.4485 21.7869 33.2718 20.9564C33.3992 20.828 33.5718 20.7559 33.7519 20.7559C33.9319 20.7559 34.1046 20.828 34.2319 20.9564C34.3592 21.0848 34.4308 21.2589 34.4308 21.4404C34.4308 21.622 34.3592 21.7961 34.2319 21.9244C33.2826 22.8823 32.1555 23.6422 30.9148 24.1606C29.6741 24.679 28.3443 24.9459 27.0014 24.9459C25.6584 24.9459 24.3286 24.679 23.0879 24.1606C21.8472 23.6422 20.7201 22.8823 19.7708 21.9244Z" fill="#777E90"/>
</svg>
