<svg width="54" height="54" viewBox="0 0 54 54" fill="none" xmlns="http://www.w3.org/2000/svg">
<path d="M53.7935 7.85862C53.5449 7.20214 53.0193 6.70871 52.4931 6.38063C51.5524 5.86085 50.4729 5.86085 49.4491 6.24393C49.3109 6.27095 49.1728 6.32563 49.062 6.40797C49.3389 5.86085 49.5323 5.20208 49.4491 4.5456C49.3938 3.88911 49.1176 3.25866 48.5084 2.71088C48.4256 2.62854 48.37 2.57386 48.2598 2.51918C47.8174 2.19077 47.1803 1.99841 46.5436 1.99841C45.8522 1.99841 45.1602 2.24545 44.6074 2.82122C44.5235 2.90226 44.4406 3.01162 44.3853 3.09462C44.0811 3.53239 43.943 3.99847 43.9706 4.43624C43.9706 4.7373 44.0535 5.01168 44.192 5.25774C44.3025 5.50413 44.4959 5.72285 44.7455 5.88721C45.0774 6.13425 45.4921 6.24393 45.9631 6.24393C46.7656 6.21529 47.0146 4.90232 45.9078 4.79198C45.7694 4.79198 45.6588 4.76432 45.6029 4.70964C45.5473 4.6823 45.5197 4.62762 45.4645 4.57294C45.1326 3.69643 45.9907 3.31334 46.5436 3.31334C47.2908 3.31334 47.9276 3.94346 48.0108 4.6823C48.0381 5.09272 47.9 5.50413 47.7066 5.83221C47.3185 6.43531 46.6551 6.73638 45.9351 6.84542C45.1602 6.92874 44.3574 6.79074 43.6387 6.46233C43.5832 6.9551 43.5282 7.44852 43.472 7.94195C44.3025 8.27035 45.2431 8.37971 46.1012 8.27035C46.4604 8.21535 46.7936 8.16067 47.1251 8.02299C47.0422 8.13235 46.9869 8.24171 46.9041 8.32471C45.3816 10.8986 46.4604 13.8015 47.5951 16.9228C48.2871 18.7305 48.9794 20.6476 49.1176 22.51C49.2004 23.3041 49.1452 24.0156 48.9518 24.6457C48.7028 25.6306 48.1766 26.4245 47.4569 27.0012C46.738 27.5754 45.797 27.9321 44.7734 28.0141C44.0255 28.0688 43.223 27.9855 42.3929 27.7667C41.0372 27.41 39.5436 26.5078 38.0484 25.6046C37.8274 26.0141 37.5784 26.4531 37.3574 26.8632C38.9065 27.8227 40.4566 28.7809 42.0334 29.191C43.0296 29.4371 43.9982 29.5191 44.884 29.4644C46.2117 29.3551 47.4014 28.8903 48.37 28.1235C49.3109 27.384 50.0309 26.3154 50.3904 25.0285C50.5838 24.2343 50.6667 23.3588 50.5838 22.4006C50.418 20.3455 49.6704 18.3478 48.9794 16.4307C47.9556 13.6371 46.9869 11.0363 48.1766 9.06452C48.5634 8.40673 49.2557 7.85862 49.9757 7.58522C50.5838 7.3665 51.2205 7.33884 51.7458 7.6399C52.0507 7.80427 52.3273 8.07767 52.4378 8.40673C52.6312 8.81748 52.5763 9.3096 52.3273 9.61164C52.0507 9.9944 51.5244 10.1324 51.0548 9.96837C50.8887 9.91238 50.7219 9.83069 50.6394 9.66632C50.5562 9.47462 50.6394 9.3096 50.8334 9.22856C51.8573 8.65311 50.6394 7.55788 49.7267 8.37971C48.7304 9.3096 49.1176 10.6249 50.2519 11.2003C50.3624 11.255 50.4729 11.3097 50.5562 11.3363C51.2758 11.5834 51.9681 11.5014 52.521 11.2003C53.7383 10.5702 54.3474 9.17388 53.7935 7.85862Z" fill="#777E90"/>
<path d="M11.1785 1.99865H42.8354C43.1396 1.99865 43.4162 1.75357 43.4162 1.42386V0.575341C43.4162 0.246935 43.1396 0.000549316 42.8354 0.000549316H11.1785C10.847 0.000549316 10.5977 0.246935 10.5977 0.575341V1.42386C10.5977 1.75357 10.847 1.99865 11.1785 1.99865Z" fill="#777E90"/>
<path d="M15.9668 25.6047C14.4723 26.5079 12.9781 27.4101 11.622 27.7669C10.7922 27.9856 9.98939 28.0689 9.24246 28.0142C8.19129 27.9322 7.27761 27.5755 6.55831 27.0013C5.83868 26.4246 5.31277 25.6308 5.03583 24.6459C4.87007 24.0157 4.81481 23.3043 4.87007 22.5101C5.03583 20.6477 5.72817 18.7307 6.39189 16.923C7.55422 13.8016 8.63367 10.8987 7.08389 8.32483C7.02864 8.24183 6.97305 8.13247 6.8905 8.02311C7.22236 8.16079 7.55422 8.21547 7.8864 8.27048C8.77213 8.37984 9.68549 8.27048 10.5429 7.94207C10.46 7.44865 10.4045 6.95522 10.3492 6.46245C9.65786 6.79086 8.82739 6.92886 8.0798 6.84554C7.33287 6.7365 6.66915 6.43544 6.30933 5.83233C6.11561 5.50425 5.97681 5.09284 6.00477 4.68242C6.08798 3.94359 6.7244 3.31346 7.47133 3.31346C7.99724 3.31346 8.88264 3.69655 8.52283 4.57306C8.49487 4.62774 8.46757 4.68242 8.41232 4.70976C8.32943 4.76444 8.24622 4.7921 8.10775 4.7921C6.97305 4.90244 7.25031 6.21541 8.0525 6.24406C8.52283 6.24406 8.93823 6.13437 9.27009 5.88733C9.49144 5.72297 9.68549 5.50425 9.82362 5.25786C9.96176 5.0118 10.017 4.73742 10.0446 4.43636C10.0446 3.99859 9.93413 3.53251 9.62957 3.09474C9.54669 3.01174 9.49144 2.90238 9.40855 2.82134C8.85501 2.24557 8.16334 1.99854 7.47133 1.99854C6.83491 1.99854 6.19849 2.19089 5.72817 2.5193C5.64528 2.57398 5.5624 2.62866 5.50715 2.711C4.89769 3.25878 4.62142 3.88923 4.56616 4.54572C4.48328 5.2022 4.67667 5.86097 4.95295 6.4081C4.81481 6.32575 4.67667 6.27107 4.53854 6.24406C3.5423 5.86097 2.46285 5.86097 1.52187 6.38076C0.996288 6.70884 0.470707 7.20226 0.193773 7.85875C-0.332137 9.174 0.249028 10.5703 1.49457 11.2004C2.04778 11.5015 2.73946 11.5835 3.43113 11.3365C3.5423 11.3098 3.65281 11.2551 3.73569 11.2004C4.89769 10.625 5.28547 9.30972 4.2616 8.37984C3.34825 7.55801 2.13066 8.65324 3.18248 9.22868C3.37588 9.30972 3.45942 9.47474 3.34825 9.66645C3.26504 9.83081 3.1269 9.91251 2.96081 9.96849C2.49081 10.1325 1.9649 9.99453 1.66034 9.61177C1.43932 9.30972 1.38373 8.8176 1.54983 8.40685C1.68796 8.07779 1.9649 7.80439 2.26913 7.64003C2.79471 7.33896 3.43113 7.36663 4.04025 7.58535C4.75956 7.85875 5.4236 8.40685 5.83868 9.06464C7.00068 11.0364 6.06003 13.6373 5.03583 16.4308C4.31686 18.3479 3.59755 20.3457 3.4035 22.4007C3.34825 23.3589 3.4035 24.2345 3.62485 25.0286C3.98467 26.3156 4.67667 27.3841 5.64528 28.1236C6.58627 28.8904 7.7759 29.3552 9.10366 29.4646C10.017 29.5192 10.9856 29.4372 11.9822 29.1912C13.5316 28.7811 15.109 27.8229 16.6585 26.8633C16.4092 26.4532 16.1882 26.0142 15.9668 25.6047Z" fill="#777E90"/>
<path d="M24.0464 35.0242V38.7203H21.6112C21.1961 40.172 20.2275 41.2955 18.9826 41.7876L18.1525 51.1536H35.8621L35.0319 41.7876C33.7867 41.2955 32.8181 40.172 32.4034 38.7203H29.9402V35.0242C37.4951 28.8363 42.7805 16.6501 43.4162 2.41046H10.5977C11.2341 16.6501 16.5195 28.8363 24.0464 35.0242ZM19.5635 13.0897L24.8212 12.5152L27.0068 7.75024L29.1936 12.5152L34.4511 13.0897L30.549 16.6501L31.6005 21.7711L27.0068 19.1973L22.4137 21.7711L23.4652 16.6501L19.5635 13.0897Z" fill="#777E90"/>
<path d="M38.5194 51.5918H15.4961V54.0003H38.5194V51.5918Z" fill="#777E90"/>
</svg>
