<svg width="30" height="30" viewBox="0 0 30 30" fill="none" xmlns="http://www.w3.org/2000/svg">
   <path fill-rule="evenodd" clip-rule="evenodd"
      d="M13.1251 2.5C7.25698 2.5 2.5 7.25698 2.5 13.125C2.5 18.993 7.25698 23.75 13.1251 23.75C15.6081 23.75 17.8937 22.897 19.7022 21.47L25.7322 27.5C26.2204 27.9881 27.0118 27.9881 27.5001 27.5C27.9882 27.0119 27.9882 26.2204 27.5001 25.7323L21.4699 19.7023C22.8971 17.8936 23.7501 15.6081 23.7501 13.125C23.7501 7.25698 18.9931 2.5 13.1251 2.5ZM5 13.125C5 8.63769 8.63769 5 13.1251 5C17.6123 5 21.2501 8.63769 21.2501 13.125C21.2501 15.369 20.3419 17.3985 18.8702 18.8703C17.3986 20.342 15.3691 21.25 13.1251 21.25C8.63769 21.25 5 17.6124 5 13.125Z"
      fill="white" />
</svg>